# xmcd CD database file
# Copyright (C) 1996 Ti Kan
#
# Track frame offsets:
#	150
#	18411
#	37105
#	51226
#	67271
#	87521
#	103246
#	118890
#	136514
#	152352
#	169301
#	177899
#	190886
#	210342
#	222258
#	240332
#	257024
#	273408
#	286166
#	301763
#	316961
# Disc length: 4419 seconds
#
# Revision: 1
# Processed by: cddbd v1.4b41PL1 Copyright (c) Steve Scherf et al.
# Submitted via: CDCOPY 4.744
#
DISCID=2b114115
DTITLE=Salco - Vyber najvacsich hitov
DYEAR=1900
DGENRE=
TTITLE0=Maj
TTITLE1=Snivam o tebe
TTITLE2=Ked ta necha dievca
TTITLE3=Ona sa mi paci
TTITLE4=Hole zeny
TTITLE5=Nalievaj
TTITLE6=Salkohol
TTITLE7=Milujem
TTITLE8=Zuzana
TTITLE9=Telefon
TTITLE10=Zelena je trava
TTITLE11=Coz takhle dat si spenat
TTITLE12=Laska chyba nam
TTITLE13=Domino
TTITLE14=Kofola
TTITLE15=Boby
TTITLE16=Da, Da, Da
TTITLE17=Pigi caj
TTITLE18=Po prazdninach
TTITLE19=Dobrota
TTITLE20=Tlakova niz 2001
EXTD=
EXTT0=
EXTT1=
EXTT2=
EXTT3=
EXTT4=
EXTT5=
EXTT6=
EXTT7=
EXTT8=
EXTT9=
EXTT10=
EXTT11=
EXTT12=
EXTT13=
EXTT14=
EXTT15=
EXTT16=
EXTT17=
EXTT18=
EXTT19=
EXTT20=
PLAYORDER=
